# xmcd
#
# Track frame offsets:
# 150
# 15345
# 27047
# 45587
# 58352
# 68562
# 82585
# 93802
# 111495
# 123870
# 144100
# 155380
# 166315
# 180612
# 194672
# 210270
# 229722
# 252985
# 267447
#
# Disc length: 3779 seconds
#
#
# Revision: 4
# Processed by: cddbd v1.5.1PL0 Copyright (c) Steve Scherf et al.
# Submitted via: FreeRIP 2.941 
#
DISCID=ee0ec113
DTITLE=Various Artist - Cowboy Forever
DYEAR=2001
DGENRE=Country
TTITLE0=Billy Ray Cyrus - Achy Breaky Heart
TTITLE1=Alan Jackson - Little Bitty
TTITLE2=Shania Twain - Any Man Of Mine
TTITLE3=Pam Tillis - Mi Vida Loca
TTITLE4=George Strait - Heartland
TTITLE5=Terri Clark - Better Things To Do
TTITLE6=Daron Morwod - Bag Dog'No Biscuit
TTITLE7=Alan Jackson - Chattahoochee
TTITLE8=Clay Walker - Only on Days That End In "Y"
TTITLE9=Garth Brooks - Ain't Going Down
TTITLE10=Rick Trevino - I Want A Gril In A Pick-up Truck
TTITLE11=Alan Jackson - Tall, Tall Trees
TTITLE12=Chris Ward - When You Get To Be You
TTITLE13=Faith Hill - Let's Go To Vegas
TTITLE14=Shania Twain - I'm Holdin On To Love
TTITLE15=Shania Twain - You Win My Love
TTITLE16=Alabama - Dixieland Delight
TTITLE17=Bellamy Brothers - Get A Little Crazy
TTITLE18=Chary Ascherall - Walking Away A Winner
EXTD=
EXTT0=
EXTT1=
EXTT2=
EXTT3=
EXTT4=
EXTT5=
EXTT6=
EXTT7=
EXTT8=
EXTT9=
EXTT10=
EXTT11=
EXTT12=
EXTT13=
EXTT14=
EXTT15=
EXTT16=
EXTT17=
EXTT18=
PLAYORDER=
